<svg width="58" height="65" viewBox="0 0 58 65" fill="none" xmlns="http://www.w3.org/2000/svg">
<circle cx="29" cy="29" r="28" fill="#ECE4DE" stroke="black" stroke-width="2"/>
<path d="M37.36 26.558V17.552C37.36 16.07 37.512 14.854 37.55 14.474H34.092C34.168 14.816 34.282 16.07 34.282 17.552V26.786C34.282 37.464 30.862 40.732 23.946 43.354L26.492 45.786C35.156 41.872 37.36 36.666 37.36 26.558ZM23.642 14.702H20.26C20.374 15.576 20.45 16.64 20.45 17.438V31.384C20.45 32.828 20.298 34.462 20.26 34.804H23.642C23.604 34.462 23.49 32.79 23.49 31.384V17.438C23.49 16.146 23.604 15.044 23.642 14.702ZM12.546 22.074V25.342C12.964 25.342 14.674 25.228 16.346 25.228H41.54C43.212 25.228 44.58 25.304 44.998 25.342V22.112C44.466 22.188 43.212 22.34 41.502 22.34H16.346C14.75 22.34 12.888 22.112 12.546 22.074Z" fill="#F93F31"/>
</svg>
